<svg width="1600" height="900" viewBox="0 0 1600 900" fill="none" xmlns="http://www.w3.org/2000/svg">
  <rect width="1600" height="900" fill="#F4F5FA"/>
  <rect x="36" y="32" width="1528" height="836" rx="24" fill="#FFFFFF" stroke="#D7DCEC" stroke-width="2"/>
  <text x="76" y="96" fill="#2A3250" font-family="Arial, sans-serif" font-size="40" font-weight="700">marketing_campaign_orchestrator</text>
  <rect x="76" y="130" width="240" height="56" rx="16" fill="#E6F7EA" stroke="#86D99D"/>
  <text x="102" y="166" fill="#2B7A43" font-family="Arial, sans-serif" font-size="24" font-weight="700">LLM Ready</text>
  <rect x="76" y="216" width="300" height="566" rx="24" fill="#F6F7FB" stroke="#D7DCEC"/>
  <text x="118" y="284" fill="#4B5573" font-family="Arial, sans-serif" font-size="36" font-weight="700">Workflows</text>
  <rect x="104" y="326" width="244" height="74" rx="18" fill="#5D4BF5"/>
  <text x="164" y="372" fill="#FFFFFF" font-family="Arial, sans-serif" font-size="30" font-weight="700">auto_review</text>
  <rect x="420" y="130" width="754" height="500" rx="22" fill="#F8F9FD" stroke="#D7DCEC"/>
  <text x="460" y="188" fill="#4B5573" font-family="Arial, sans-serif" font-size="32" font-weight="700">Discovery workflow checkpoints</text>
  <rect x="460" y="232" width="674" height="86" rx="18" fill="#EEF1FA" stroke="#CDD4EA"/>
  <circle cx="500" cy="275" r="20" fill="#DCE4FF"/>
  <text x="492" y="282" fill="#4D5BD1" font-family="Arial, sans-serif" font-size="20" font-weight="700">4</text>
  <text x="538" y="270" fill="#20263D" font-family="Arial, sans-serif" font-size="28" font-weight="700">restore_raw_request_for_parse</text>
  <text x="538" y="301" fill="#7581A6" font-family="Arial, sans-serif" font-size="22">Sequential stage in the current workflow</text>
  <rect x="460" y="338" width="674" height="86" rx="18" fill="#EEF1FA" stroke="#CDD4EA"/>
  <circle cx="500" cy="381" r="20" fill="#DCE4FF"/>
  <text x="492" y="388" fill="#4D5BD1" font-family="Arial, sans-serif" font-size="20" font-weight="700">5</text>
  <text x="538" y="376" fill="#20263D" font-family="Arial, sans-serif" font-size="28" font-weight="700">parse_request</text>
  <text x="538" y="407" fill="#7581A6" font-family="Arial, sans-serif" font-size="22">Extract brand and URL from natural language input</text>
  <rect x="460" y="444" width="674" height="86" rx="18" fill="#EEF1FA" stroke="#CDD4EA"/>
  <circle cx="500" cy="487" r="20" fill="#DCE4FF"/>
  <text x="492" y="494" fill="#4D5BD1" font-family="Arial, sans-serif" font-size="20" font-weight="700">6</text>
  <text x="538" y="482" fill="#20263D" font-family="Arial, sans-serif" font-size="28" font-weight="700">save_request_brief</text>
  <text x="538" y="513" fill="#7581A6" font-family="Arial, sans-serif" font-size="22">Persist discovery brief for follow-up scraping</text>
  <rect x="1206" y="130" width="302" height="500" rx="22" fill="#F8F9FD" stroke="#D7DCEC"/>
  <text x="1242" y="188" fill="#4B5573" font-family="Arial, sans-serif" font-size="30" font-weight="700">Human input</text>
  <rect x="1238" y="224" width="238" height="52" rx="16" fill="#DDE8FF"/>
  <text x="1262" y="258" fill="#4050C6" font-family="Arial, sans-serif" font-size="22" font-weight="700">collect_manual_brand_profile</text>
  <text x="1242" y="318" fill="#20263D" font-family="Arial, sans-serif" font-size="24">Fallback when an official site</text>
  <text x="1242" y="352" fill="#20263D" font-family="Arial, sans-serif" font-size="24">cannot be resolved confidently.</text>
  <text x="1242" y="408" fill="#6B7695" font-family="Arial, sans-serif" font-size="21">Collects:</text>
  <text x="1242" y="442" fill="#6B7695" font-family="Arial, sans-serif" font-size="21">Brand name, product type, tone,</text>
  <text x="1242" y="474" fill="#6B7695" font-family="Arial, sans-serif" font-size="21">value proposition, target audience,</text>
  <text x="1242" y="506" fill="#6B7695" font-family="Arial, sans-serif" font-size="21">visual identity, official URL, notes.</text>
  <rect x="420" y="670" width="1088" height="122" rx="20" fill="#F7F8FC" stroke="#D7DCEC"/>
  <text x="458" y="725" fill="#4B5573" font-family="Arial, sans-serif" font-size="28" font-weight="700">Run this workflow</text>
  <text x="458" y="769" fill="#20263D" font-family="Courier New, monospace" font-size="26">Analyze Basecamp's marketing content and generate a phase-one discovery report.</text>
  <text x="458" y="804" fill="#20263D" font-family="Courier New, monospace" font-size="26">Official website: https://basecamp.com</text>
</svg>
